<?xml version="1.0" encoding="UTF-8" standalone="no"?>
<!-- Created with Inkscape (http://www.inkscape.org/) -->

<svg
   xmlns:dc="http://purl.org/dc/elements/1.1/"
   xmlns:cc="http://creativecommons.org/ns#"
   xmlns:rdf="http://www.w3.org/1999/02/22-rdf-syntax-ns#"
   xmlns:svg="http://www.w3.org/2000/svg"
   xmlns="http://www.w3.org/2000/svg"
   xmlns:xlink="http://www.w3.org/1999/xlink"
   xmlns:sodipodi="http://sodipodi.sourceforge.net/DTD/sodipodi-0.dtd"
   xmlns:inkscape="http://www.inkscape.org/namespaces/inkscape"
   inkscape:export-ydpi="300"
   inkscape:export-xdpi="300"
   inkscape:export-filename="/home/fatho/projects/syn-txt/doc/logo.png"
   sodipodi:docname="logo.svg"
   inkscape:version="0.92.5 (2060ec1f9f, 2020-04-08)"
   id="svg8"
   version="1.1"
   viewBox="0 0 50 50"
   height="50mm"
   width="50mm">
  <defs
     id="defs2">
    <linearGradient
       inkscape:collect="always"
       id="linearGradient1048">
      <stop
         style="stop-color:#95f3ad;stop-opacity:1;"
         offset="0"
         id="stop1044" />
      <stop
         style="stop-color:#95f3ad;stop-opacity:0;"
         offset="1"
         id="stop1046" />
    </linearGradient>
    <linearGradient
       inkscape:collect="always"
       xlink:href="#linearGradient1048"
       id="linearGradient1050"
       x1="3.9952586"
       y1="271.98448"
       x2="46.19373"
       y2="271.98448"
       gradientUnits="userSpaceOnUse" />
    <filter
       inkscape:collect="always"
       style="color-interpolation-filters:sRGB"
       id="filter1521"
       x="-0.1168214"
       width="1.2336428"
       y="-0.39199761"
       height="1.7839952">
      <feGaussianBlur
         inkscape:collect="always"
         stdDeviation="7.7085202"
         id="feGaussianBlur1523" />
    </filter>
    <filter
       inkscape:collect="always"
       style="color-interpolation-filters:sRGB"
       id="filter1545"
       x="-0.077880875"
       width="1.1557617"
       y="-0.26133243"
       height="1.5226649">
      <feGaussianBlur
         inkscape:collect="always"
         stdDeviation="1.3596963"
         id="feGaussianBlur1547" />
    </filter>
    <filter
       inkscape:collect="always"
       style="color-interpolation-filters:sRGB"
       id="filter1549"
       x="-0.038940437"
       width="1.0778809"
       y="-0.13066621"
       height="1.2613324">
      <feGaussianBlur
         inkscape:collect="always"
         stdDeviation="0.67984815"
         id="feGaussianBlur1551" />
    </filter>
    <filter
       inkscape:collect="always"
       style="color-interpolation-filters:sRGB"
       id="filter2109"
       x="-0.057364279"
       width="1.1147286"
       y="-0.14129577"
       height="1.2825915">
      <feGaussianBlur
         inkscape:collect="always"
         stdDeviation="1.0918819"
         id="feGaussianBlur2111" />
    </filter>
    <filter
       inkscape:collect="always"
       style="color-interpolation-filters:sRGB"
       id="filter2463"
       x="-0.11472856"
       width="1.2294571"
       y="-0.28259154"
       height="1.5651831">
      <feGaussianBlur
         inkscape:collect="always"
         stdDeviation="2.1837638"
         id="feGaussianBlur2465" />
    </filter>
  </defs>
  <sodipodi:namedview
     id="base"
     pagecolor="#ffffff"
     bordercolor="#666666"
     borderopacity="1.0"
     inkscape:pageopacity="0.0"
     inkscape:pageshadow="2"
     inkscape:zoom="2.5955624"
     inkscape:cx="118.72363"
     inkscape:cy="164.11508"
     inkscape:document-units="mm"
     inkscape:current-layer="layer1"
     showgrid="false"
     inkscape:window-width="2560"
     inkscape:window-height="1418"
     inkscape:window-x="2560"
     inkscape:window-y="0"
     inkscape:window-maximized="0" />
  <metadata
     id="metadata5">
    <rdf:RDF>
      <cc:Work
         rdf:about="">
        <dc:format>image/svg+xml</dc:format>
        <dc:type
           rdf:resource="http://purl.org/dc/dcmitype/StillImage" />
        <dc:title />
      </cc:Work>
    </rdf:RDF>
  </metadata>
  <g
     inkscape:label="Layer 1"
     inkscape:groupmode="layer"
     id="layer1"
     transform="translate(0,-247)">
    <rect
       style="fill:#000000;fill-opacity:1;stroke:none;stroke-width:1.1686281;stroke-linecap:round;stroke-linejoin:round;stroke-miterlimit:4;stroke-dasharray:none;stroke-dashoffset:0;stroke-opacity:1"
       id="rect815"
       width="46.655956"
       height="25.879536"
       x="1.766516"
       y="259.04474" />
    <g
       id="g2543"
       transform="translate(-66.539847)">
      <g
         transform="translate(0,1.7584106)"
         style="stroke:#062a0f;stroke-opacity:1;filter:url(#filter2463)"
         id="g1607">
        <path
           style="fill:none;stroke:#062a0f;stroke-width:0.56220675;stroke-linecap:butt;stroke-linejoin:miter;stroke-miterlimit:4;stroke-dasharray:none;stroke-opacity:1"
           d="m 68.698833,270.24159 c 0,0 2.04743,5.62178 5.710255,5.62178 3.662823,0 8.125062,-11.24355 11.420506,-11.24355 3.295447,0 5.710255,5.62177 5.710255,5.62177"
           id="path817-5"
           inkscape:connector-curvature="0"
           sodipodi:nodetypes="czzc" />
        <path
           style="fill:none;stroke:#062a0f;stroke-width:0.56220675;stroke-linecap:butt;stroke-linejoin:miter;stroke-miterlimit:4;stroke-dasharray:none;stroke-opacity:1"
           d="m 91.539849,270.24159 c 0,0 2.04743,5.62178 5.710253,5.62178 3.662828,0 8.125058,-11.24355 11.420508,-11.24355 3.29545,0 5.71025,5.62177 5.71025,5.62177"
           id="path817-3-6"
           inkscape:connector-curvature="0"
           sodipodi:nodetypes="czzc" />
        <path
           style="fill:none;stroke:#062a0f;stroke-width:0.5895592;stroke-linecap:butt;stroke-linejoin:miter;stroke-miterlimit:4;stroke-dasharray:none;stroke-opacity:1"
           d="m 68.698833,270.24159 c 0,0 1.364953,-9.27316 3.806837,-9.27316 2.441882,0 5.416707,18.54632 7.613669,18.54632 2.196966,0 3.806838,-9.27316 3.806838,-9.27316"
           id="path817-7-29"
           inkscape:connector-curvature="0"
           sodipodi:nodetypes="czzc" />
        <path
           style="fill:none;stroke:#062a0f;stroke-width:0.5895592;stroke-linecap:butt;stroke-linejoin:miter;stroke-miterlimit:4;stroke-dasharray:none;stroke-opacity:1"
           d="m 83.926177,270.24159 c 0,0 1.364952,-9.27316 3.806834,-9.27316 2.441885,0 5.41671,18.54632 7.613674,18.54632 2.196965,0 3.806835,-9.27316 3.806835,-9.27316"
           id="path817-3-5-1"
           inkscape:connector-curvature="0"
           sodipodi:nodetypes="czzc" />
        <path
           style="fill:none;stroke:#062a0f;stroke-width:0.5895592;stroke-linecap:butt;stroke-linejoin:miter;stroke-miterlimit:4;stroke-dasharray:none;stroke-opacity:1"
           d="m 99.15352,270.24159 c 0,0 1.36495,-9.27316 3.80684,-9.27316 2.44188,0 5.4167,18.54632 7.61367,18.54632 2.19696,0 3.80683,-9.27316 3.80683,-9.27316"
           id="path817-7-2-2"
           inkscape:connector-curvature="0"
           sodipodi:nodetypes="czzc" />
      </g>
      <g
         transform="translate(0,1.7584108)"
         style="stroke:#094518;stroke-width:2;stroke-miterlimit:4;stroke-dasharray:none;stroke-opacity:1;filter:url(#filter2109)"
         id="g1619">
        <path
           sodipodi:nodetypes="czzc"
           inkscape:connector-curvature="0"
           id="path1609"
           d="m 68.698833,270.24159 c 0,0 2.04743,5.62178 5.710255,5.62178 3.662823,0 8.125062,-11.24355 11.420506,-11.24355 3.295447,0 5.710255,5.62177 5.710255,5.62177"
           style="fill:none;stroke:#094518;stroke-width:2;stroke-linecap:butt;stroke-linejoin:miter;stroke-miterlimit:4;stroke-dasharray:none;stroke-opacity:1" />
        <path
           sodipodi:nodetypes="czzc"
           inkscape:connector-curvature="0"
           id="path1611"
           d="m 91.539849,270.24159 c 0,0 2.04743,5.62178 5.710253,5.62178 3.662828,0 8.125058,-11.24355 11.420508,-11.24355 3.29545,0 5.71025,5.62177 5.71025,5.62177"
           style="fill:none;stroke:#094518;stroke-width:2;stroke-linecap:butt;stroke-linejoin:miter;stroke-miterlimit:4;stroke-dasharray:none;stroke-opacity:1" />
        <path
           sodipodi:nodetypes="czzc"
           inkscape:connector-curvature="0"
           id="path1613"
           d="m 68.698833,270.24159 c 0,0 1.364953,-9.27316 3.806837,-9.27316 2.441882,0 5.416707,18.54632 7.613669,18.54632 2.196966,0 3.806838,-9.27316 3.806838,-9.27316"
           style="fill:none;stroke:#094518;stroke-width:2;stroke-linecap:butt;stroke-linejoin:miter;stroke-miterlimit:4;stroke-dasharray:none;stroke-opacity:1" />
        <path
           sodipodi:nodetypes="czzc"
           inkscape:connector-curvature="0"
           id="path1615"
           d="m 83.926177,270.24159 c 0,0 1.364952,-9.27316 3.806834,-9.27316 2.441885,0 5.41671,18.54632 7.613674,18.54632 2.196965,0 3.806835,-9.27316 3.806835,-9.27316"
           style="fill:none;stroke:#094518;stroke-width:2;stroke-linecap:butt;stroke-linejoin:miter;stroke-miterlimit:4;stroke-dasharray:none;stroke-opacity:1" />
        <path
           sodipodi:nodetypes="czzc"
           inkscape:connector-curvature="0"
           id="path1617"
           d="m 99.15352,270.24159 c 0,0 1.36495,-9.27316 3.80684,-9.27316 2.44188,0 5.4167,18.54632 7.61367,18.54632 2.19696,0 3.80683,-9.27316 3.80683,-9.27316"
           style="fill:none;stroke:#094518;stroke-width:2;stroke-linecap:butt;stroke-linejoin:miter;stroke-miterlimit:4;stroke-dasharray:none;stroke-opacity:1" />
      </g>
      <g
         style="stroke:#0a581f;stroke-width:0.2;stroke-miterlimit:4;stroke-dasharray:none;stroke-opacity:1"
         transform="translate(0,1.75841)"
         id="g2137">
        <path
           sodipodi:nodetypes="czzc"
           inkscape:connector-curvature="0"
           id="path2127"
           d="m 68.698833,270.24159 c 0,0 2.04743,5.62178 5.710255,5.62178 3.662823,0 8.125062,-11.24355 11.420506,-11.24355 3.295447,0 5.710255,5.62177 5.710255,5.62177"
           style="fill:none;stroke:#0a581f;stroke-width:0.2;stroke-linecap:butt;stroke-linejoin:miter;stroke-miterlimit:4;stroke-dasharray:none;stroke-opacity:1" />
        <path
           sodipodi:nodetypes="czzc"
           inkscape:connector-curvature="0"
           id="path2129"
           d="m 91.539849,270.24159 c 0,0 2.04743,5.62178 5.710253,5.62178 3.662828,0 8.125058,-11.24355 11.420508,-11.24355 3.29545,0 5.71025,5.62177 5.71025,5.62177"
           style="fill:none;stroke:#0a581f;stroke-width:0.2;stroke-linecap:butt;stroke-linejoin:miter;stroke-miterlimit:4;stroke-dasharray:none;stroke-opacity:1" />
        <path
           sodipodi:nodetypes="czzc"
           inkscape:connector-curvature="0"
           id="path2131"
           d="m 68.698833,270.24159 c 0,0 1.364953,-9.27316 3.806837,-9.27316 2.441882,0 5.416707,18.54632 7.613669,18.54632 2.196966,0 3.806838,-9.27316 3.806838,-9.27316"
           style="fill:none;stroke:#0a581f;stroke-width:0.2;stroke-linecap:butt;stroke-linejoin:miter;stroke-miterlimit:4;stroke-dasharray:none;stroke-opacity:1" />
        <path
           sodipodi:nodetypes="czzc"
           inkscape:connector-curvature="0"
           id="path2133"
           d="m 83.926177,270.24159 c 0,0 1.364952,-9.27316 3.806834,-9.27316 2.441885,0 5.41671,18.54632 7.613674,18.54632 2.196965,0 3.806835,-9.27316 3.806835,-9.27316"
           style="fill:none;stroke:#0a581f;stroke-width:0.2;stroke-linecap:butt;stroke-linejoin:miter;stroke-miterlimit:4;stroke-dasharray:none;stroke-opacity:1" />
        <path
           sodipodi:nodetypes="czzc"
           inkscape:connector-curvature="0"
           id="path2135"
           d="m 99.15352,270.24159 c 0,0 1.36495,-9.27316 3.80684,-9.27316 2.44188,0 5.4167,18.54632 7.61367,18.54632 2.19696,0 3.80683,-9.27316 3.80683,-9.27316"
           style="fill:none;stroke:#0a581f;stroke-width:0.2;stroke-linecap:butt;stroke-linejoin:miter;stroke-miterlimit:4;stroke-dasharray:none;stroke-opacity:1" />
      </g>
    </g>
    <rect
       y="259.04474"
       x="1.766516"
       height="25.879536"
       width="46.655956"
       id="rect852"
       style="fill:none;fill-opacity:1;stroke:#8b8b8b;stroke-width:1.1686281;stroke-linecap:round;stroke-linejoin:round;stroke-miterlimit:4;stroke-dasharray:none;stroke-dashoffset:0;stroke-opacity:1" />
    <g
       id="g1557"
       transform="translate(-63.888888)">
      <path
         inkscape:connector-curvature="0"
         id="text986-6-3"
         transform="matrix(0.26458333,0,0,0.26458333,0,249.31921)"
         d="m 358.3125,62.125 -1.79297,5.996094 -4.02344,1.767578 v 2.050781 h 4.02344 v 16.705078 c 0,5.722113 2.71475,8.582031 8.14649,8.582031 0.71739,0 1.52194,-0.07674 2.41015,-0.230468 0.90529,-0.136648 1.58764,-0.315057 2.04883,-0.53711 v -3.253906 c -0.40994,0.119567 -0.9657,0.237855 -1.66602,0.357422 -0.70031,0.102486 -1.42617,0.154297 -2.17773,0.154297 -1.40064,0 -2.50188,-0.452133 -3.30469,-1.357422 -0.8028,-0.905289 -1.20508,-2.203519 -1.20508,-3.894531 V 71.939453 h 8.14844 v -3.306641 h -8.14844 V 62.125 Z m 46.01562,0 -1.79296,5.996094 -4.02344,1.767578 v 2.050781 h 4.02344 v 16.705078 c 0,5.722113 2.7167,8.582031 8.14843,8.582031 0.7174,0 1.52,-0.07674 2.40821,-0.230468 0.90529,-0.136648 1.58764,-0.315057 2.04882,-0.53711 v -3.253906 c -0.40994,0.119567 -0.96374,0.237855 -1.66406,0.357422 -0.70032,0.102486 -1.42812,0.154297 -2.17968,0.154297 -1.40064,0 -2.50189,-0.452133 -3.30469,-1.357422 -0.80281,-0.905289 -1.20313,-2.203519 -1.20313,-3.894531 V 71.939453 h 8.14649 v -3.306641 h -8.14649 V 62.125 Z m -137.0996,5.996094 c -3.24538,0 -5.79834,0.665734 -7.66016,1.998047 -1.86182,1.315232 -2.79297,3.117405 -2.79297,5.40625 0,1.28107 0.26541,2.382317 0.79492,3.304687 0.54659,0.922371 1.36581,1.751848 2.45899,2.486328 1.11026,0.717399 2.97255,1.563496 5.58593,2.53711 2.75003,1.059018 4.59376,1.979902 5.53321,2.765625 0.95653,0.768642 1.43554,1.699789 1.43554,2.792968 0,1.45188 -0.59925,2.536507 -1.79492,3.253907 -1.19566,0.700318 -2.90252,1.050781 -5.12304,1.050781 -1.4348,0 -2.93001,-0.196982 -4.48438,-0.589844 -1.53728,-0.392861 -2.98068,-0.930044 -4.33008,-1.613281 v 3.945312 c 2.08388,1.178585 4.9873,1.767578 8.71094,1.767578 3.51867,0 6.25199,-0.707282 8.19922,-2.125 1.94723,-1.417717 2.92187,-3.433492 2.92187,-6.046874 0,-1.861822 -0.58899,-3.408845 -1.76757,-4.638672 -1.16151,-1.229828 -3.40946,-2.451317 -6.74024,-3.664063 -2.42549,-0.905289 -4.06392,-1.595952 -4.91797,-2.074219 -0.85404,-0.478266 -1.47823,-0.982209 -1.87109,-1.511718 -0.37578,-0.529509 -0.5625,-1.170314 -0.5625,-1.921875 0,-1.110261 0.51225,-1.981287 1.53711,-2.613282 1.02485,-0.631994 2.54499,-0.947265 4.56055,-0.947265 2.28884,0 4.8418,0.580684 7.66015,1.742187 l 1.51172,-3.458984 c -2.88668,-1.229827 -5.84191,-1.845703 -8.86523,-1.845703 z m 56.08593,0 c -1.93014,0 -3.68246,0.383701 -5.2539,1.152344 -1.57145,0.751561 -2.79098,1.819569 -3.66211,3.203124 h -0.20508 L 313.5,68.632812 h -3.45703 v 28.082032 h 4.25195 V 81.982422 c 0,-3.65532 0.68431,-6.276708 2.05078,-7.865234 1.36648,-1.588527 3.51716,-2.382813 6.45508,-2.382813 2.22052,0 3.8526,0.564065 4.89453,1.691406 1.04194,1.127342 1.5625,2.834202 1.5625,5.123047 v 18.166016 h 4.25391 V 78.394531 c 0,-3.586996 -0.85441,-6.191764 -2.5625,-7.814453 -1.70809,-1.639769 -4.25274,-2.458984 -7.63477,-2.458984 z m -44.17187,0.511718 11.32422,28.236329 -1.5625,3.996089 c -1.24691,3.27954 -3.33112,4.91993 -6.25196,4.91993 -1.1615,0 -2.21094,-0.10363 -3.15039,-0.3086 v 3.40821 c 1.26399,0.29037 2.54365,0.43554 3.8418,0.43554 2.32301,0 4.27866,-0.66573 5.86719,-1.99804 1.60561,-1.31524 3.00746,-3.55292 4.20312,-6.71289 l 12.06641,-31.976568 h -4.56055 c -3.92861,10.863474 -6.25135,17.354621 -6.96875,19.472657 -0.70032,2.100955 -1.16076,3.587857 -1.38281,4.458984 h -0.20508 c -0.32454,-1.622689 -1.16232,-4.262649 -2.51172,-7.917969 l -6.14844,-16.013672 z m 92.5957,0 9.76172,13.708985 -10.27344,14.373047 h 4.81641 l 7.94336,-11.376953 7.86523,11.376953 h 4.81641 l -10.27344,-14.373047 9.76172,-13.708985 h -4.79102 l -7.3789,10.761719 -7.40625,-10.761719 z m -27.08203,21.88086 c -0.97361,0 -1.7244,0.298652 -2.25391,0.896484 -0.51242,0.580752 -0.76953,1.443468 -0.76953,2.587891 0,1.229827 0.28203,2.119426 0.84571,2.666015 0.58075,0.529509 1.3066,0.792969 2.17773,0.792969 0.97361,0 1.74297,-0.298651 2.30664,-0.896484 0.56367,-0.597833 0.8457,-1.452239 0.8457,-2.5625 0,-1.144423 -0.28203,-2.007139 -0.8457,-2.587891 -0.54659,-0.597832 -1.31595,-0.896484 -2.30664,-0.896484 z"
         style="font-style:normal;font-weight:normal;font-size:11.90004158px;line-height:1.25;font-family:sans-serif;letter-spacing:0px;word-spacing:0px;fill:#11832f;fill-opacity:1;stroke:#11832f;stroke-width:7.55905533;stroke-miterlimit:4;stroke-dasharray:none;stroke-opacity:1;filter:url(#filter1521)" />
      <path
         inkscape:connector-curvature="0"
         style="font-style:normal;font-weight:normal;font-size:11.90004158px;line-height:1.25;font-family:sans-serif;letter-spacing:0px;word-spacing:0px;fill:#19c146;fill-opacity:1;stroke:#19c146;stroke-width:1;stroke-miterlimit:4;stroke-dasharray:none;stroke-opacity:1;filter:url(#filter1545)"
         d="m 94.803514,265.75648 -0.47439,1.58647 -1.064535,0.46767 v 0.5426 h 1.064535 v 4.41989 c 0,1.51397 0.718278,2.27066 2.155426,2.27066 0.189809,0 0.40268,-0.0203 0.637685,-0.061 0.239525,-0.0362 0.420064,-0.0834 0.542087,-0.14211 v -0.86093 c -0.108464,0.0316 -0.255508,0.0629 -0.440801,0.0946 -0.185291,0.0271 -0.377341,0.0408 -0.576191,0.0408 -0.370586,0 -0.661956,-0.11962 -0.874366,-0.35915 -0.212408,-0.23952 -0.318844,-0.58301 -0.318844,-1.03043 v -4.37234 h 2.155941 v -0.87487 H 95.45412 v -1.72186 z m 12.174966,0 -0.47439,1.58647 -1.06453,0.46767 v 0.5426 h 1.06453 v 4.41989 c 0,1.51397 0.7188,2.27066 2.15594,2.27066 0.18981,0 0.40217,-0.0203 0.63717,-0.061 0.23953,-0.0362 0.42007,-0.0834 0.54209,-0.14211 v -0.86093 c -0.10847,0.0316 -0.25499,0.0629 -0.44028,0.0946 -0.1853,0.0271 -0.37786,0.0408 -0.57671,0.0408 -0.37059,0 -0.66196,-0.11962 -0.87437,-0.35915 -0.21241,-0.23952 -0.31833,-0.58301 -0.31833,-1.03043 v -4.37234 h 2.15543 v -0.87488 h -2.15543 v -1.72186 z m -36.274268,1.58647 c -0.858674,0 -1.534144,0.17614 -2.026751,0.52865 -0.492606,0.34798 -0.738973,0.82481 -0.738973,1.4304 0,0.33895 0.07022,0.63032 0.210322,0.87436 0.144619,0.24405 0.361371,0.46351 0.650608,0.65785 0.293756,0.18981 0.786487,0.41367 1.477944,0.67127 0.727612,0.2802 1.215432,0.52385 1.463995,0.73174 0.253082,0.20337 0.37982,0.44974 0.37982,0.73897 0,0.38415 -0.158551,0.67112 -0.474906,0.86093 -0.316351,0.1853 -0.767958,0.27802 -1.355471,0.27802 -0.379624,0 -0.775232,-0.0521 -1.186492,-0.15606 -0.406739,-0.10395 -0.788638,-0.24607 -1.145667,-0.42685 v 1.04387 c 0.55136,0.31183 1.319557,0.46767 2.30477,0.46767 0.930981,0 1.654172,-0.18714 2.169377,-0.56224 0.515204,-0.37511 0.773078,-0.90845 0.773078,-1.5999 0,-0.49261 -0.155837,-0.90193 -0.46767,-1.22732 -0.307316,-0.32539 -0.902086,-0.64858 -1.783355,-0.96945 -0.641744,-0.23952 -1.075246,-0.42226 -1.301213,-0.5488 -0.225965,-0.12654 -0.391115,-0.25988 -0.495059,-0.39998 -0.09942,-0.1401 -0.148828,-0.30964 -0.148828,-0.50849 0,-0.29376 0.135532,-0.52422 0.406693,-0.69144 0.271159,-0.16721 0.673362,-0.25063 1.206646,-0.25063 0.605589,0 1.281059,0.15364 2.026748,0.46096 l 0.399976,-0.91519 c -0.763768,-0.32539 -1.545672,-0.48834 -2.345592,-0.48834 z m 14.839402,0 c -0.510683,0 -0.974318,0.10152 -1.390095,0.30489 -0.415779,0.19885 -0.738446,0.48142 -0.968933,0.84749 h -0.05426 l -0.183451,-1.01699 h -0.914673 v 7.43004 h 1.124996 v -3.89796 c 0,-0.96713 0.181057,-1.66071 0.542602,-2.08101 0.361548,-0.4203 0.930582,-0.63045 1.707906,-0.63045 0.587513,0 1.019334,0.14924 1.295011,0.44752 0.27568,0.29827 0.413412,0.74988 0.413412,1.35547 v 4.80643 h 1.125513 v -4.84725 c 0,-0.94906 -0.226062,-1.63824 -0.677994,-2.06758 -0.451932,-0.43385 -1.125204,-0.6506 -2.020034,-0.6506 z m -11.687141,0.13539 2.9962,7.47086 -0.413411,1.0573 c -0.329912,0.86771 -0.881359,1.30173 -1.654165,1.30173 -0.307313,0 -0.584978,-0.0274 -0.83354,-0.0817 v 0.90175 c 0.33443,0.0768 0.673007,0.11524 1.016476,0.11524 0.61463,0 1.132062,-0.17614 1.552361,-0.52865 0.424817,-0.34799 0.795723,-0.94004 1.112075,-1.77612 l 3.192571,-8.46046 h -1.206646 c -1.039444,2.87429 -1.654003,4.59174 -1.843815,5.15214 -0.185293,0.55588 -0.307117,0.94929 -0.365868,1.17977 h -0.05426 c -0.08587,-0.42934 -0.30753,-1.12782 -0.664559,-2.09496 l -1.626775,-4.23695 z m 24.499279,0 2.582788,3.62717 -2.718181,3.80287 h 1.274342 l 2.101679,-3.01016 2.08101,3.01016 h 1.27434 l -2.71818,-3.80287 2.58279,-3.62717 h -1.26762 l -1.95234,2.84737 -1.959568,-2.84737 z m -7.165454,5.78931 c -0.257601,0 -0.456247,0.079 -0.596347,0.23719 -0.135577,0.15366 -0.203604,0.38192 -0.203604,0.68472 0,0.32539 0.07462,0.56076 0.22376,0.70538 0.153657,0.1401 0.345705,0.20981 0.576191,0.20981 0.257601,0 0.461161,-0.079 0.610299,-0.2372 0.149138,-0.15818 0.223758,-0.38424 0.223758,-0.67799 0,-0.3028 -0.07462,-0.53106 -0.223758,-0.68472 -0.144619,-0.15817 -0.348179,-0.23719 -0.610299,-0.23719 z"
         id="path1497" />
      <path
         id="path1499"
         d="m 94.803514,265.75649 -0.47439,1.58647 -1.064535,0.46767 v 0.5426 h 1.064535 v 4.41989 c 0,1.51397 0.718278,2.27066 2.155426,2.27066 0.189809,0 0.40268,-0.0203 0.637685,-0.061 0.239525,-0.0362 0.420064,-0.0834 0.542087,-0.14211 v -0.86093 c -0.108464,0.0316 -0.255508,0.0629 -0.440801,0.0946 -0.185291,0.0271 -0.377341,0.0408 -0.576191,0.0408 -0.370586,0 -0.661956,-0.11962 -0.874366,-0.35915 -0.212408,-0.23952 -0.318844,-0.58301 -0.318844,-1.03043 v -4.37234 h 2.155941 v -0.87487 H 95.45412 v -1.72186 z m 12.174966,0 -0.47439,1.58647 -1.06453,0.46767 v 0.5426 h 1.06453 v 4.41989 c 0,1.51397 0.7188,2.27066 2.15594,2.27066 0.18981,0 0.40217,-0.0203 0.63717,-0.061 0.23953,-0.0362 0.42007,-0.0834 0.54209,-0.14211 v -0.86093 c -0.10847,0.0316 -0.25499,0.0629 -0.44028,0.0946 -0.1853,0.0271 -0.37786,0.0408 -0.57671,0.0408 -0.37059,0 -0.66196,-0.11962 -0.87437,-0.35915 -0.21241,-0.23952 -0.31833,-0.58301 -0.31833,-1.03043 v -4.37234 h 2.15543 v -0.87488 h -2.15543 v -1.72186 z m -36.274268,1.58647 c -0.858674,0 -1.534144,0.17614 -2.026751,0.52865 -0.492606,0.34798 -0.738973,0.82481 -0.738973,1.4304 0,0.33895 0.07022,0.63032 0.210322,0.87436 0.144619,0.24405 0.361371,0.46351 0.650608,0.65785 0.293756,0.18981 0.786487,0.41367 1.477944,0.67127 0.727612,0.2802 1.215432,0.52385 1.463995,0.73174 0.253082,0.20337 0.37982,0.44974 0.37982,0.73897 0,0.38415 -0.158551,0.67112 -0.474906,0.86093 -0.316351,0.1853 -0.767958,0.27802 -1.355471,0.27802 -0.379624,0 -0.775232,-0.0521 -1.186492,-0.15606 -0.406739,-0.10395 -0.788638,-0.24607 -1.145667,-0.42685 v 1.04387 c 0.55136,0.31183 1.319557,0.46767 2.30477,0.46767 0.930981,0 1.654172,-0.18714 2.169377,-0.56224 0.515204,-0.37511 0.773078,-0.90845 0.773078,-1.5999 0,-0.49261 -0.155837,-0.90193 -0.46767,-1.22732 -0.307316,-0.32539 -0.902086,-0.64858 -1.783355,-0.96945 -0.641744,-0.23952 -1.075246,-0.42226 -1.301213,-0.5488 -0.225965,-0.12654 -0.391115,-0.25988 -0.495059,-0.39998 -0.09942,-0.1401 -0.148828,-0.30964 -0.148828,-0.50849 0,-0.29376 0.135532,-0.52422 0.406693,-0.69144 0.271159,-0.16721 0.673362,-0.25063 1.206646,-0.25063 0.605589,0 1.281059,0.15364 2.026748,0.46096 l 0.399976,-0.91519 c -0.763768,-0.32539 -1.545672,-0.48834 -2.345592,-0.48834 z m 14.839402,0 c -0.510683,0 -0.974318,0.10152 -1.390095,0.30489 -0.415779,0.19885 -0.738446,0.48142 -0.968933,0.84749 h -0.05426 l -0.183451,-1.01699 h -0.914673 v 7.43004 h 1.124996 v -3.89796 c 0,-0.96713 0.181057,-1.66071 0.542602,-2.08101 0.361548,-0.4203 0.930582,-0.63045 1.707906,-0.63045 0.587513,0 1.019334,0.14924 1.295011,0.44752 0.27568,0.29827 0.413412,0.74988 0.413412,1.35547 v 4.80643 h 1.125513 v -4.84725 c 0,-0.94906 -0.226062,-1.63824 -0.677994,-2.06758 -0.451932,-0.43385 -1.125204,-0.6506 -2.020034,-0.6506 z m -11.687141,0.13539 2.9962,7.47086 -0.413411,1.0573 c -0.329912,0.86771 -0.881359,1.30173 -1.654165,1.30173 -0.307313,0 -0.584978,-0.0274 -0.83354,-0.0817 v 0.90175 c 0.33443,0.0768 0.673007,0.11524 1.016476,0.11524 0.61463,0 1.132062,-0.17614 1.552361,-0.52865 0.424817,-0.34799 0.795723,-0.94004 1.112075,-1.77612 l 3.192571,-8.46046 h -1.206646 c -1.039444,2.87429 -1.654003,4.59174 -1.843815,5.15214 -0.185293,0.55588 -0.307117,0.94929 -0.365868,1.17977 h -0.05426 c -0.08587,-0.42934 -0.30753,-1.12782 -0.664559,-2.09496 l -1.626775,-4.23695 z m 24.499279,0 2.582788,3.62717 -2.718181,3.80287 h 1.274342 l 2.101679,-3.01016 2.08101,3.01016 h 1.27434 l -2.71818,-3.80287 2.58279,-3.62717 h -1.26762 l -1.95234,2.84737 -1.959568,-2.84737 z m -7.165454,5.78931 c -0.257601,0 -0.456247,0.079 -0.596347,0.23719 -0.135577,0.15366 -0.203604,0.38192 -0.203604,0.68472 0,0.32539 0.07462,0.56076 0.22376,0.70538 0.153657,0.1401 0.345705,0.20981 0.576191,0.20981 0.257601,0 0.461161,-0.079 0.610299,-0.2372 0.149138,-0.15818 0.223758,-0.38424 0.223758,-0.67799 0,-0.3028 -0.07462,-0.53106 -0.223758,-0.68472 -0.144619,-0.15817 -0.348179,-0.23719 -0.610299,-0.23719 z"
         style="font-style:normal;font-weight:normal;font-size:11.90004158px;line-height:1.25;font-family:sans-serif;letter-spacing:0px;word-spacing:0px;fill:#75eb93;fill-opacity:1;stroke:#75eb93;stroke-width:0.5;stroke-miterlimit:4;stroke-dasharray:none;stroke-opacity:1;filter:url(#filter1549)"
         inkscape:connector-curvature="0" />
      <path
         inkscape:connector-curvature="0"
         style="font-style:normal;font-weight:normal;font-size:11.90004158px;line-height:1.25;font-family:sans-serif;letter-spacing:0px;word-spacing:0px;fill:#ecf8ec;fill-opacity:1;stroke:none;stroke-width:1;stroke-miterlimit:4;stroke-dasharray:none;stroke-opacity:0.39215686"
         d="m 94.803514,265.75643 -0.47439,1.58648 -1.064535,0.46767 v 0.5426 h 1.064535 v 4.41989 c 0,1.51397 0.718278,2.27065 2.155426,2.27065 0.189809,0 0.40268,-0.0203 0.637685,-0.061 0.239525,-0.0361 0.420064,-0.0834 0.542087,-0.14211 v -0.86093 c -0.108464,0.0316 -0.255508,0.0629 -0.440801,0.0946 -0.185291,0.0271 -0.377341,0.0408 -0.576191,0.0408 -0.370586,0 -0.661956,-0.11962 -0.874366,-0.35915 -0.212408,-0.23952 -0.318844,-0.58301 -0.318844,-1.03044 v -4.37234 h 2.155941 v -0.87487 H 95.45412 v -1.72186 z m 12.174966,0 -0.47439,1.58648 -1.06453,0.46767 v 0.5426 h 1.06453 v 4.41989 c 0,1.51397 0.7188,2.27065 2.15594,2.27065 0.18981,0 0.40217,-0.0203 0.63717,-0.061 0.23953,-0.0361 0.42007,-0.0834 0.54209,-0.14211 v -0.86093 c -0.10847,0.0316 -0.25499,0.0629 -0.44028,0.0946 -0.1853,0.0271 -0.37786,0.0408 -0.57671,0.0408 -0.37059,0 -0.66196,-0.11962 -0.87437,-0.35915 -0.21241,-0.23952 -0.31833,-0.58301 -0.31833,-1.03044 v -4.37234 h 2.15543 v -0.87487 h -2.15543 v -1.72186 z m -36.274268,1.58648 c -0.858674,0 -1.534144,0.17613 -2.026751,0.52865 -0.492606,0.34799 -0.738973,0.82481 -0.738973,1.4304 0,0.33895 0.07022,0.63031 0.210322,0.87437 0.144619,0.24404 0.361371,0.46351 0.650608,0.65783 0.293756,0.18981 0.786487,0.41367 1.477944,0.67128 0.727612,0.2802 1.215432,0.52385 1.463995,0.73173 0.253082,0.20338 0.37982,0.44974 0.37982,0.73897 0,0.38415 -0.158551,0.67112 -0.474906,0.86094 -0.316351,0.18529 -0.767958,0.27801 -1.355471,0.27801 -0.379624,0 -0.775232,-0.0521 -1.186492,-0.15606 -0.406739,-0.10394 -0.788638,-0.24607 -1.145667,-0.42684 v 1.04386 c 0.55136,0.31183 1.319557,0.46767 2.30477,0.46767 0.930981,0 1.654172,-0.18714 2.169377,-0.56223 0.515204,-0.37512 0.773078,-0.90846 0.773078,-1.59991 0,-0.49261 -0.155837,-0.90193 -0.46767,-1.22732 -0.307316,-0.32538 -0.902086,-0.64858 -1.783355,-0.96944 -0.641744,-0.23953 -1.075246,-0.42226 -1.301213,-0.5488 -0.225965,-0.12655 -0.391115,-0.25989 -0.495059,-0.39998 -0.09942,-0.1401 -0.148828,-0.30964 -0.148828,-0.50849 0,-0.29376 0.135532,-0.52423 0.406693,-0.69144 0.271159,-0.16721 0.673362,-0.25063 1.206646,-0.25063 0.605589,0 1.281059,0.15364 2.026748,0.46096 l 0.399976,-0.91519 c -0.763768,-0.3254 -1.545672,-0.48834 -2.345592,-0.48834 z m 14.839402,0 c -0.510683,0 -0.974318,0.10152 -1.390095,0.30489 -0.415779,0.19885 -0.738446,0.48143 -0.968933,0.84749 h -0.05426 l -0.183451,-1.017 h -0.914673 v 7.43005 h 1.124996 v -3.89797 c 0,-0.96712 0.181057,-1.6607 0.542602,-2.081 0.361548,-0.42029 0.930582,-0.63045 1.707906,-0.63045 0.587513,0 1.019334,0.14924 1.295011,0.44752 0.27568,0.29827 0.413412,0.74987 0.413412,1.35546 v 4.80644 h 1.125513 v -4.84725 c 0,-0.94906 -0.226062,-1.63824 -0.677994,-2.06758 -0.451932,-0.43385 -1.125204,-0.6506 -2.020034,-0.6506 z m -11.687141,0.13538 2.9962,7.47087 -0.413411,1.0573 c -0.329912,0.8677 -0.881359,1.30172 -1.654165,1.30172 -0.307313,0 -0.584978,-0.0274 -0.83354,-0.0816 v 0.90176 c 0.33443,0.0768 0.673007,0.11523 1.016476,0.11523 0.61463,0 1.132062,-0.17614 1.552361,-0.52865 0.424817,-0.34799 0.795723,-0.94004 1.112075,-1.77611 l 3.192571,-8.46047 h -1.206646 c -1.039444,2.8743 -1.654003,4.59174 -1.843815,5.15215 -0.185293,0.55588 -0.307117,0.94929 -0.365868,1.17976 h -0.05426 c -0.08587,-0.42932 -0.30753,-1.12782 -0.664559,-2.09495 l -1.626775,-4.23696 z m 24.499279,0 2.582788,3.62718 -2.718181,3.80287 h 1.274342 l 2.101679,-3.01016 2.08101,3.01016 h 1.27434 l -2.71818,-3.80287 2.58279,-3.62718 h -1.26762 l -1.95234,2.84738 -1.959568,-2.84738 z m -7.165454,5.78931 c -0.257601,0 -0.456247,0.079 -0.596347,0.2372 -0.135577,0.15365 -0.203604,0.38192 -0.203604,0.68472 0,0.32538 0.07462,0.56075 0.22376,0.70538 0.153657,0.14009 0.345705,0.20981 0.576191,0.20981 0.257601,0 0.461161,-0.079 0.610299,-0.2372 0.149138,-0.15818 0.223758,-0.38424 0.223758,-0.67799 0,-0.3028 -0.07462,-0.53107 -0.223758,-0.68472 -0.144619,-0.15817 -0.348179,-0.2372 -0.610299,-0.2372 z"
         id="path1456" />
    </g>
  </g>
</svg>
